<svg xmlns="http://www.w3.org/2000/svg" viewBox="0 0 720 540" width="720" height="540" role="img" aria-label="12 piece tabbed jigsaw puzzle outlines">
  <title>12 piece tabbed jigsaw puzzle outlines</title>
  <g>
    <path data-piece="0" d="M 0 0 L 180 0 C 180 22.606 168.213 35.703 168.213 58.309 C 168.213 70.33 163.608 89.454 185.464 71.423 C 207.32 53.391 224.804 71.969 224.804 90 C 224.804 108.031 207.32 126.609 185.464 108.577 C 163.608 90.546 168.213 109.67 168.213 121.691 C 168.213 144.297 180 157.394 180 180 C 157.394 180 144.297 191.787 121.691 191.787 C 109.67 191.787 90.546 196.392 108.577 174.536 C 126.609 152.68 108.031 135.196 90 135.196 C 71.969 135.196 53.391 152.68 71.423 174.536 C 89.454 196.392 70.33 191.787 58.309 191.787 C 35.703 191.787 22.606 180 0 180 L 0 0 Z" fill="none" stroke="#0f172a" stroke-width="1.5" stroke-linejoin="round" stroke-linecap="round" vector-effect="non-scaling-stroke" />
    <path data-piece="1" d="M 180 0 L 360 0 C 360 22.606 371.787 35.703 371.787 58.309 C 371.787 70.33 376.392 89.454 354.536 71.423 C 332.68 53.391 315.196 71.969 315.196 90 C 315.196 108.031 332.68 126.609 354.536 108.577 C 376.392 90.546 371.787 109.67 371.787 121.691 C 371.787 144.297 360 157.394 360 180 C 337.394 180 324.297 191.787 301.691 191.787 C 289.67 191.787 270.546 196.392 288.577 174.536 C 306.609 152.68 288.031 135.196 270 135.196 C 251.969 135.196 233.391 152.68 251.423 174.536 C 269.454 196.392 250.33 191.787 238.309 191.787 C 215.703 191.787 202.606 180 180 180 C 180 157.394 168.213 144.297 168.213 121.691 C 168.213 109.67 163.608 90.546 185.464 108.577 C 207.32 126.609 224.804 108.031 224.804 90 C 224.804 71.969 207.32 53.391 185.464 71.423 C 163.608 89.454 168.213 70.33 168.213 58.309 C 168.213 35.703 180 22.606 180 0 Z" fill="none" stroke="#0f172a" stroke-width="1.5" stroke-linejoin="round" stroke-linecap="round" vector-effect="non-scaling-stroke" />
    <path data-piece="2" d="M 360 0 L 540 0 C 540 22.606 528.213 35.703 528.213 58.309 C 528.213 70.33 523.608 89.454 545.464 71.423 C 567.32 53.391 584.804 71.969 584.804 90 C 584.804 108.031 567.32 126.609 545.464 108.577 C 523.608 90.546 528.213 109.67 528.213 121.691 C 528.213 144.297 540 157.394 540 180 C 517.394 180 504.297 191.787 481.691 191.787 C 469.67 191.787 450.546 196.392 468.577 174.536 C 486.609 152.68 468.031 135.196 450 135.196 C 431.969 135.196 413.391 152.68 431.423 174.536 C 449.454 196.392 430.33 191.787 418.309 191.787 C 395.703 191.787 382.606 180 360 180 C 360 157.394 371.787 144.297 371.787 121.691 C 371.787 109.67 376.392 90.546 354.536 108.577 C 332.68 126.609 315.196 108.031 315.196 90 C 315.196 71.969 332.68 53.391 354.536 71.423 C 376.392 89.454 371.787 70.33 371.787 58.309 C 371.787 35.703 360 22.606 360 0 Z" fill="none" stroke="#0f172a" stroke-width="1.5" stroke-linejoin="round" stroke-linecap="round" vector-effect="non-scaling-stroke" />
    <path data-piece="3" d="M 540 0 L 720 0 L 720 180 C 697.394 180 684.297 168.213 661.691 168.213 C 649.67 168.213 630.546 163.608 648.577 185.464 C 666.609 207.32 648.031 224.804 630 224.804 C 611.969 224.804 593.391 207.32 611.423 185.464 C 629.454 163.608 610.33 168.213 598.309 168.213 C 575.703 168.213 562.606 180 540 180 C 540 157.394 528.213 144.297 528.213 121.691 C 528.213 109.67 523.608 90.546 545.464 108.577 C 567.32 126.609 584.804 108.031 584.804 90 C 584.804 71.969 567.32 53.391 545.464 71.423 C 523.608 89.454 528.213 70.33 528.213 58.309 C 528.213 35.703 540 22.606 540 0 Z" fill="none" stroke="#0f172a" stroke-width="1.5" stroke-linejoin="round" stroke-linecap="round" vector-effect="non-scaling-stroke" />
    <path data-piece="4" d="M 0 180 C 22.606 180 35.703 191.787 58.309 191.787 C 70.33 191.787 89.454 196.392 71.423 174.536 C 53.391 152.68 71.969 135.196 90 135.196 C 108.031 135.196 126.609 152.68 108.577 174.536 C 90.546 196.392 109.67 191.787 121.691 191.787 C 144.297 191.787 157.394 180 180 180 C 180 202.606 191.787 215.703 191.787 238.309 C 191.787 250.33 196.392 269.454 174.536 251.423 C 152.68 233.391 135.196 251.969 135.196 270 C 135.196 288.031 152.68 306.609 174.536 288.577 C 196.392 270.546 191.787 289.67 191.787 301.691 C 191.787 324.297 180 337.394 180 360 C 157.394 360 144.297 371.787 121.691 371.787 C 109.67 371.787 90.546 376.392 108.577 354.536 C 126.609 332.68 108.031 315.196 90 315.196 C 71.969 315.196 53.391 332.68 71.423 354.536 C 89.454 376.392 70.33 371.787 58.309 371.787 C 35.703 371.787 22.606 360 0 360 L 0 180 Z" fill="none" stroke="#0f172a" stroke-width="1.5" stroke-linejoin="round" stroke-linecap="round" vector-effect="non-scaling-stroke" />
    <path data-piece="5" d="M 180 180 C 202.606 180 215.703 191.787 238.309 191.787 C 250.33 191.787 269.454 196.392 251.423 174.536 C 233.391 152.68 251.969 135.196 270 135.196 C 288.031 135.196 306.609 152.68 288.577 174.536 C 270.546 196.392 289.67 191.787 301.691 191.787 C 324.297 191.787 337.394 180 360 180 C 360 202.606 348.213 215.703 348.213 238.309 C 348.213 250.33 343.608 269.454 365.464 251.423 C 387.32 233.391 404.804 251.969 404.804 270 C 404.804 288.031 387.32 306.609 365.464 288.577 C 343.608 270.546 348.213 289.67 348.213 301.691 C 348.213 324.297 360 337.394 360 360 C 337.394 360 324.297 348.213 301.691 348.213 C 289.67 348.213 270.546 343.608 288.577 365.464 C 306.609 387.32 288.031 404.804 270 404.804 C 251.969 404.804 233.391 387.32 251.423 365.464 C 269.454 343.608 250.33 348.213 238.309 348.213 C 215.703 348.213 202.606 360 180 360 C 180 337.394 191.787 324.297 191.787 301.691 C 191.787 289.67 196.392 270.546 174.536 288.577 C 152.68 306.609 135.196 288.031 135.196 270 C 135.196 251.969 152.68 233.391 174.536 251.423 C 196.392 269.454 191.787 250.33 191.787 238.309 C 191.787 215.703 180 202.606 180 180 Z" fill="none" stroke="#0f172a" stroke-width="1.5" stroke-linejoin="round" stroke-linecap="round" vector-effect="non-scaling-stroke" />
    <path data-piece="6" d="M 360 180 C 382.606 180 395.703 191.787 418.309 191.787 C 430.33 191.787 449.454 196.392 431.423 174.536 C 413.391 152.68 431.969 135.196 450 135.196 C 468.031 135.196 486.609 152.68 468.577 174.536 C 450.546 196.392 469.67 191.787 481.691 191.787 C 504.297 191.787 517.394 180 540 180 C 540 202.606 528.213 215.703 528.213 238.309 C 528.213 250.33 523.608 269.454 545.464 251.423 C 567.32 233.391 584.804 251.969 584.804 270 C 584.804 288.031 567.32 306.609 545.464 288.577 C 523.608 270.546 528.213 289.67 528.213 301.691 C 528.213 324.297 540 337.394 540 360 C 517.394 360 504.297 371.787 481.691 371.787 C 469.67 371.787 450.546 376.392 468.577 354.536 C 486.609 332.68 468.031 315.196 450 315.196 C 431.969 315.196 413.391 332.68 431.423 354.536 C 449.454 376.392 430.33 371.787 418.309 371.787 C 395.703 371.787 382.606 360 360 360 C 360 337.394 348.213 324.297 348.213 301.691 C 348.213 289.67 343.608 270.546 365.464 288.577 C 387.32 306.609 404.804 288.031 404.804 270 C 404.804 251.969 387.32 233.391 365.464 251.423 C 343.608 269.454 348.213 250.33 348.213 238.309 C 348.213 215.703 360 202.606 360 180 Z" fill="none" stroke="#0f172a" stroke-width="1.5" stroke-linejoin="round" stroke-linecap="round" vector-effect="non-scaling-stroke" />
    <path data-piece="7" d="M 540 180 C 562.606 180 575.703 168.213 598.309 168.213 C 610.33 168.213 629.454 163.608 611.423 185.464 C 593.391 207.32 611.969 224.804 630 224.804 C 648.031 224.804 666.609 207.32 648.577 185.464 C 630.546 163.608 649.67 168.213 661.691 168.213 C 684.297 168.213 697.394 180 720 180 L 720 360 C 697.394 360 684.297 348.213 661.691 348.213 C 649.67 348.213 630.546 343.608 648.577 365.464 C 666.609 387.32 648.031 404.804 630 404.804 C 611.969 404.804 593.391 387.32 611.423 365.464 C 629.454 343.608 610.33 348.213 598.309 348.213 C 575.703 348.213 562.606 360 540 360 C 540 337.394 528.213 324.297 528.213 301.691 C 528.213 289.67 523.608 270.546 545.464 288.577 C 567.32 306.609 584.804 288.031 584.804 270 C 584.804 251.969 567.32 233.391 545.464 251.423 C 523.608 269.454 528.213 250.33 528.213 238.309 C 528.213 215.703 540 202.606 540 180 Z" fill="none" stroke="#0f172a" stroke-width="1.5" stroke-linejoin="round" stroke-linecap="round" vector-effect="non-scaling-stroke" />
    <path data-piece="8" d="M 0 360 C 22.606 360 35.703 371.787 58.309 371.787 C 70.33 371.787 89.454 376.392 71.423 354.536 C 53.391 332.68 71.969 315.196 90 315.196 C 108.031 315.196 126.609 332.68 108.577 354.536 C 90.546 376.392 109.67 371.787 121.691 371.787 C 144.297 371.787 157.394 360 180 360 C 180 382.606 168.213 395.703 168.213 418.309 C 168.213 430.33 163.608 449.454 185.464 431.423 C 207.32 413.391 224.804 431.969 224.804 450 C 224.804 468.031 207.32 486.609 185.464 468.577 C 163.608 450.546 168.213 469.67 168.213 481.691 C 168.213 504.297 180 517.394 180 540 L 0 540 L 0 360 Z" fill="none" stroke="#0f172a" stroke-width="1.5" stroke-linejoin="round" stroke-linecap="round" vector-effect="non-scaling-stroke" />
    <path data-piece="9" d="M 180 360 C 202.606 360 215.703 348.213 238.309 348.213 C 250.33 348.213 269.454 343.608 251.423 365.464 C 233.391 387.32 251.969 404.804 270 404.804 C 288.031 404.804 306.609 387.32 288.577 365.464 C 270.546 343.608 289.67 348.213 301.691 348.213 C 324.297 348.213 337.394 360 360 360 C 360 382.606 348.213 395.703 348.213 418.309 C 348.213 430.33 343.608 449.454 365.464 431.423 C 387.32 413.391 404.804 431.969 404.804 450 C 404.804 468.031 387.32 486.609 365.464 468.577 C 343.608 450.546 348.213 469.67 348.213 481.691 C 348.213 504.297 360 517.394 360 540 L 180 540 C 180 517.394 168.213 504.297 168.213 481.691 C 168.213 469.67 163.608 450.546 185.464 468.577 C 207.32 486.609 224.804 468.031 224.804 450 C 224.804 431.969 207.32 413.391 185.464 431.423 C 163.608 449.454 168.213 430.33 168.213 418.309 C 168.213 395.703 180 382.606 180 360 Z" fill="none" stroke="#0f172a" stroke-width="1.5" stroke-linejoin="round" stroke-linecap="round" vector-effect="non-scaling-stroke" />
    <path data-piece="10" d="M 360 360 C 382.606 360 395.703 371.787 418.309 371.787 C 430.33 371.787 449.454 376.392 431.423 354.536 C 413.391 332.68 431.969 315.196 450 315.196 C 468.031 315.196 486.609 332.68 468.577 354.536 C 450.546 376.392 469.67 371.787 481.691 371.787 C 504.297 371.787 517.394 360 540 360 C 540 382.606 528.213 395.703 528.213 418.309 C 528.213 430.33 523.608 449.454 545.464 431.423 C 567.32 413.391 584.804 431.969 584.804 450 C 584.804 468.031 567.32 486.609 545.464 468.577 C 523.608 450.546 528.213 469.67 528.213 481.691 C 528.213 504.297 540 517.394 540 540 L 360 540 C 360 517.394 348.213 504.297 348.213 481.691 C 348.213 469.67 343.608 450.546 365.464 468.577 C 387.32 486.609 404.804 468.031 404.804 450 C 404.804 431.969 387.32 413.391 365.464 431.423 C 343.608 449.454 348.213 430.33 348.213 418.309 C 348.213 395.703 360 382.606 360 360 Z" fill="none" stroke="#0f172a" stroke-width="1.5" stroke-linejoin="round" stroke-linecap="round" vector-effect="non-scaling-stroke" />
    <path data-piece="11" d="M 540 360 C 562.606 360 575.703 348.213 598.309 348.213 C 610.33 348.213 629.454 343.608 611.423 365.464 C 593.391 387.32 611.969 404.804 630 404.804 C 648.031 404.804 666.609 387.32 648.577 365.464 C 630.546 343.608 649.67 348.213 661.691 348.213 C 684.297 348.213 697.394 360 720 360 L 720 540 L 540 540 C 540 517.394 528.213 504.297 528.213 481.691 C 528.213 469.67 523.608 450.546 545.464 468.577 C 567.32 486.609 584.804 468.031 584.804 450 C 584.804 431.969 567.32 413.391 545.464 431.423 C 523.608 449.454 528.213 430.33 528.213 418.309 C 528.213 395.703 540 382.606 540 360 Z" fill="none" stroke="#0f172a" stroke-width="1.5" stroke-linejoin="round" stroke-linecap="round" vector-effect="non-scaling-stroke" />
  </g>
</svg>
