<svg xmlns="http://www.w3.org/2000/svg" viewBox="0 0 720 540" width="720" height="540" role="img" aria-label="30 piece tabbed Voronoi jigsaw puzzle outlines">
  <title>30 piece tabbed Voronoi jigsaw puzzle outlines</title>
  <g>
    <path data-piece="0" d="M 13.347 127.759 L 0 135.123 L 0 0 L 95.728 0 C 84.048 18.114 66.324 20.991 54.644 39.105 C 50.352 45.761 45.656 57.724 64.196 55.544 C 82.736 53.363 85.784 69.893 79.346 79.877 C 72.908 89.861 56.594 93.905 50.93 76.117 C 45.266 58.33 36.306 67.544 32.014 74.2 C 20.334 92.314 25.027 109.645 13.347 127.759 Z" fill="none" stroke="#111827" stroke-width="1" stroke-linejoin="round" stroke-linecap="round" vector-effect="non-scaling-stroke" />
    <path data-piece="1" d="M 235.483 103.263 C 226.267 110.195 216.85 108.385 207.633 115.316 C 204.208 117.893 199.515 123 209.339 125.364 C 219.162 127.728 217.615 136.693 212.476 140.558 C 207.337 144.422 198.295 143.421 198.749 133.327 C 199.204 123.234 192.996 126.325 189.57 128.901 C 180.354 135.833 179.478 145.382 170.262 152.313 C 146.563 148.605 131.152 162.322 107.453 158.614 C 100.583 157.539 90.651 149.454 102.911 138.575 C 115.17 127.696 106.117 116.042 95.811 114.429 C 85.506 112.817 73.325 121.148 81.676 135.252 C 90.026 149.356 78.099 154.02 71.229 152.945 C 47.53 149.237 37.045 131.468 13.347 127.759 C 25.027 109.645 20.334 92.314 32.014 74.2 C 36.306 67.544 45.266 58.33 50.93 76.117 C 56.594 93.905 72.908 89.861 79.346 79.877 C 85.784 69.893 82.736 53.363 64.196 55.544 C 45.656 57.724 50.352 45.761 54.644 39.105 C 66.324 20.991 84.048 18.114 95.728 0 L 245.15 0 C 245.06 4.025 241.007 5.177 240.917 9.202 C 240.818 13.63 238.648 20.63 246.847 14.168 C 255.046 7.706 261.334 14.693 261.186 21.335 C 261.037 27.977 254.444 34.676 246.541 27.854 C 238.639 21.032 240.494 28.122 240.395 32.55 C 240.305 36.576 244.303 37.907 244.213 41.932 C 243.168 49.27 238.506 52.893 237.461 60.231 C 236.825 64.703 233.78 71.527 242.864 65.977 C 251.948 60.427 257.468 68.263 256.514 74.97 C 255.559 81.677 248.072 87.661 240.897 79.797 C 233.722 71.933 234.742 79.336 234.106 83.807 C 233.061 91.145 236.528 95.925 235.483 103.263 Z" fill="none" stroke="#111827" stroke-width="1" stroke-linejoin="round" stroke-linecap="round" vector-effect="non-scaling-stroke" />
    <path data-piece="2" d="M 413.433 142.526 C 386.491 126.51 360.82 136.769 333.879 120.753 C 327.71 117.086 324.102 100.809 340.025 95.093 C 355.947 89.377 351.747 74.735 342.493 69.234 C 333.238 63.732 318.369 67.038 320.955 83.757 C 323.541 100.475 307.518 105.083 301.349 101.416 C 274.408 85.4 271.154 57.948 244.213 41.932 C 244.303 37.907 240.305 36.576 240.395 32.55 C 240.494 28.122 238.639 21.032 246.541 27.854 C 254.444 34.676 261.037 27.977 261.186 21.335 C 261.334 14.693 255.046 7.706 246.847 14.168 C 238.648 20.63 240.818 13.63 240.917 9.202 C 241.007 5.177 245.06 4.025 245.15 0 L 422.545 0 C 421.475 21.007 407.264 31.876 406.194 52.882 C 405.855 59.541 409.857 70.365 422.472 60.994 C 435.087 51.623 444.247 62.407 443.739 72.394 C 443.23 82.382 433.021 92.178 421.424 81.574 C 409.826 70.97 404.745 81.332 404.406 87.99 C 403.335 108.997 416.368 121.253 415.298 142.26 L 413.433 142.526 Z" fill="none" stroke="#111827" stroke-width="1" stroke-linejoin="round" stroke-linecap="round" vector-effect="non-scaling-stroke" />
    <path data-piece="3" d="M 442.176 167.843 L 415.298 142.26 C 416.368 121.253 403.335 108.997 404.406 87.99 C 404.745 81.332 409.826 70.97 421.424 81.574 C 433.021 92.178 443.23 82.382 443.739 72.394 C 444.247 62.407 435.087 51.623 422.472 60.994 C 409.857 70.365 405.855 59.541 406.194 52.882 C 407.264 31.876 421.475 21.007 422.545 0 L 497.35 0 C 509.105 17.987 504.894 35.164 516.649 53.151 C 521.315 60.29 529.819 70.943 535.802 51.749 C 541.784 32.556 559.38 36.803 566.379 47.513 C 573.379 58.222 570.205 76.044 550.224 73.818 C 530.243 71.592 536.586 83.657 541.252 90.797 C 553.007 108.784 570.43 111.822 582.185 129.809 C 562.063 135.275 547.452 125.658 527.33 131.124 C 520.28 133.039 509.889 139.125 523.947 149.071 C 538.004 159.016 529.894 172.231 519.319 175.104 C 508.743 177.977 495.062 170.682 502.155 154.99 C 509.248 139.299 497.206 139.307 490.156 141.222 C 470.035 146.688 462.297 162.377 442.176 167.843 Z" fill="none" stroke="#111827" stroke-width="1" stroke-linejoin="round" stroke-linecap="round" vector-effect="non-scaling-stroke" />
    <path data-piece="4" d="M 665.929 106.214 C 657.824 111.27 656.394 119.069 648.289 124.125 C 645.237 126.029 639.877 128.248 640.993 119.843 C 642.109 111.438 634.623 109.941 630.045 112.797 C 625.467 115.653 623.52 123.035 631.56 125.728 C 639.599 128.421 635.249 132.26 632.197 134.164 C 624.092 139.22 616.46 137.075 608.355 142.132 C 605.776 140.917 603.465 142.654 600.886 141.439 C 598.343 140.242 593.752 139.493 599.745 136.665 C 605.737 133.837 603.548 128.287 599.733 126.491 C 595.919 124.695 590.246 126.543 591.884 132.964 C 593.521 139.384 590.02 136.323 587.476 135.125 C 584.898 133.911 584.764 131.023 582.185 129.809 C 570.43 111.822 553.007 108.784 541.252 90.797 C 536.586 83.657 530.243 71.592 550.224 73.818 C 570.205 76.044 573.379 58.222 566.379 47.513 C 559.38 36.803 541.784 32.556 535.802 51.749 C 529.819 70.943 521.315 60.29 516.649 53.151 C 504.894 35.164 509.105 17.987 497.35 0 L 646.653 0 C 649.355 14.886 659.948 21.572 662.65 36.458 C 663.682 42.148 664.003 51.44 652.109 44.783 C 640.214 38.125 633.534 48.421 635.082 56.956 C 636.631 65.491 646.504 72.783 655.3 62.37 C 664.097 51.958 667.062 60.77 668.094 66.46 C 670.796 81.346 663.227 91.328 665.929 106.214 Z" fill="none" stroke="#111827" stroke-width="1" stroke-linejoin="round" stroke-linecap="round" vector-effect="non-scaling-stroke" />
    <path data-piece="5" d="M 665.929 106.214 C 663.227 91.328 670.796 81.346 668.094 66.46 C 667.062 60.77 664.097 51.958 655.3 62.37 C 646.504 72.783 636.631 65.491 635.082 56.956 C 633.534 48.421 640.214 38.125 652.109 44.783 C 664.003 51.44 663.682 42.148 662.65 36.458 C 659.948 21.572 649.355 14.886 646.653 0 L 720 0 L 720 103.367 C 714.713 103.646 711.983 98.954 706.696 99.232 C 701.391 99.511 692.825 97.544 701.289 106.77 C 709.754 115.997 701.962 124.144 694.005 124.563 C 686.048 124.982 677.444 117.698 684.893 107.634 C 692.342 97.57 684.03 100.425 678.725 100.705 C 673.438 100.983 671.216 105.936 665.929 106.214 Z" fill="none" stroke="#111827" stroke-width="1" stroke-linejoin="round" stroke-linecap="round" vector-effect="non-scaling-stroke" />
    <path data-piece="6" d="M 0 210.564 L 0 135.123 L 13.347 127.759 C 37.045 131.468 47.53 149.237 71.229 152.945 C 78.099 154.02 90.026 149.356 81.676 135.252 C 73.325 121.148 85.506 112.817 95.811 114.429 C 106.117 116.042 115.17 127.696 102.911 138.575 C 90.651 149.454 100.583 157.539 107.453 158.614 C 131.152 162.322 146.563 148.605 170.262 152.313 C 169.557 159.868 164.818 163.755 164.113 171.31 C 163.667 176.081 160.789 183.469 170.133 177.123 C 179.476 170.776 185.728 178.798 185.059 185.955 C 184.391 193.112 176.762 199.838 168.755 191.87 C 160.749 183.903 162.208 191.696 161.763 196.468 C 161.057 204.022 164.994 208.72 164.288 216.275 C 139.204 215.403 126.135 198.076 101.051 197.204 C 94.102 196.963 82.789 203.954 92.774 216.951 C 102.76 229.949 91.668 239.685 81.244 239.322 C 70.819 238.96 60.43 228.478 71.294 216.205 C 82.157 203.932 71.358 196.172 64.408 195.931 C 39.324 195.059 25.084 211.436 0 210.564 Z" fill="none" stroke="#111827" stroke-width="1" stroke-linejoin="round" stroke-linecap="round" vector-effect="non-scaling-stroke" />
    <path data-piece="7" d="M 208.066 262.929 L 178.04 266.122 L 170.879 261.04 L 164.288 216.275 C 164.994 208.72 161.057 204.022 161.763 196.468 C 162.208 191.696 160.749 183.903 168.755 191.87 C 176.762 199.838 184.391 193.112 185.059 185.955 C 185.728 178.798 179.476 170.776 170.133 177.123 C 160.789 183.469 163.667 176.081 164.113 171.31 C 164.818 163.755 169.557 159.868 170.262 152.313 C 179.478 145.382 180.354 135.833 189.57 128.901 C 192.996 126.325 199.204 123.234 198.749 133.327 C 198.295 143.421 207.337 144.422 212.476 140.558 C 217.615 136.693 219.162 127.728 209.339 125.364 C 199.515 123 204.208 117.893 207.633 115.316 C 216.85 108.385 226.267 110.195 235.483 103.263 C 239.498 108.563 238.661 113.913 242.675 119.213 C 245.263 122.63 247.828 129.243 250.158 119.411 C 252.489 109.58 261.459 111.096 265.341 116.222 C 269.223 121.348 268.253 130.393 258.158 129.973 C 248.063 129.553 253.734 133.813 256.322 137.23 C 260.336 142.53 265.712 143.174 269.726 148.474 C 260.455 165.683 266.761 181.229 257.49 198.438 C 254.753 203.519 245.948 209.203 240.817 196.606 C 235.685 184.01 224.066 187.88 219.961 195.501 C 215.856 203.121 219.016 214.953 232.358 212.309 C 245.699 209.664 245.797 220.144 243.06 225.225 C 233.789 242.434 217.337 245.72 208.066 262.929 Z" fill="none" stroke="#111827" stroke-width="1" stroke-linejoin="round" stroke-linecap="round" vector-effect="non-scaling-stroke" />
    <path data-piece="8" d="M 304.833 181.425 C 299.259 176.194 292.612 177.274 287.037 172.042 C 285.744 170.828 285.683 166.769 289.831 166.238 C 293.978 165.707 293.745 161.95 291.805 160.129 C 289.865 158.307 286.1 158.313 285.833 162.486 C 285.565 166.658 281.511 166.854 280.217 165.64 C 274.643 160.408 275.301 153.706 269.726 148.474 C 265.712 143.174 260.336 142.53 256.322 137.23 C 253.734 133.813 248.063 129.553 258.158 129.973 C 268.253 130.393 269.223 121.348 265.341 116.222 C 261.459 111.096 252.489 109.58 250.158 119.411 C 247.828 129.243 245.263 122.63 242.675 119.213 C 238.661 113.913 239.498 108.563 235.483 103.263 C 236.528 95.925 233.061 91.145 234.106 83.807 C 234.742 79.336 233.722 71.933 240.897 79.797 C 248.072 87.661 255.559 81.677 256.514 74.97 C 257.468 68.263 251.948 60.427 242.864 65.977 C 233.78 71.527 236.825 64.703 237.461 60.231 C 238.506 52.893 243.168 49.27 244.213 41.932 C 271.154 57.948 274.408 85.4 301.349 101.416 C 307.518 105.083 323.541 100.475 320.955 83.757 C 318.369 67.038 333.238 63.732 342.493 69.234 C 351.747 74.735 355.947 89.377 340.025 95.093 C 324.102 100.809 327.71 117.086 333.879 120.753 C 360.82 136.769 386.491 126.51 413.433 142.526 C 396.871 148.458 391.832 162.802 375.27 168.735 C 370.659 170.386 361.595 168.189 365.509 157.327 C 369.422 146.466 359.893 142.311 352.977 144.789 C 346.06 147.266 341.336 156.526 351.256 162.432 C 361.176 168.339 355.568 175.792 350.957 177.443 C 334.395 183.376 321.395 175.493 304.833 181.425 Z" fill="none" stroke="#111827" stroke-width="1" stroke-linejoin="round" stroke-linecap="round" vector-effect="non-scaling-stroke" />
    <path data-piece="9" d="M 431.554 244.501 C 411.413 235.521 406.944 216.533 386.802 207.553 C 382.328 205.559 371.61 210.463 374.694 221.588 C 377.778 232.714 367.963 236.139 361.253 233.147 C 354.543 230.155 350.53 220.566 360.867 215.424 C 371.203 210.281 367.687 199.031 363.214 197.037 C 343.072 188.057 325.961 197.424 305.82 188.444 L 304.833 181.425 C 321.395 175.493 334.395 183.376 350.957 177.443 C 355.568 175.792 361.176 168.339 351.256 162.432 C 341.336 156.526 346.06 147.266 352.977 144.789 C 359.893 142.311 369.422 146.466 365.509 157.327 C 361.595 168.189 370.659 170.386 375.27 168.735 C 391.832 162.802 396.871 148.458 413.433 142.526 L 415.298 142.26 L 442.176 167.843 C 441.996 173.265 439.031 176.305 438.851 181.728 C 438.757 184.555 437.614 189.02 442.895 184.95 C 448.175 180.88 452.143 185.385 452.002 189.626 C 451.861 193.867 447.604 198.099 442.604 193.688 C 437.605 189.277 438.45 193.808 438.356 196.635 C 438.176 202.057 440.933 205.287 440.753 210.71 C 439.742 214.424 441.772 217.126 440.761 220.84 C 439.99 223.672 440.051 228.528 436.058 222.878 C 432.065 217.229 426.754 220.484 425.598 224.732 C 424.442 228.98 427.37 234.478 433.675 231.632 C 439.981 228.786 437.467 232.941 436.696 235.773 C 435.685 239.487 432.566 240.787 431.554 244.501 Z" fill="none" stroke="#111827" stroke-width="1" stroke-linejoin="round" stroke-linecap="round" vector-effect="non-scaling-stroke" />
    <path data-piece="10" d="M 575.186 241.143 C 555.62 236.714 541.973 246.748 522.407 242.319 C 515.859 240.836 506.246 234.923 518.763 225.241 C 531.281 215.559 523.317 203.743 513.495 201.52 C 503.673 199.296 491.396 206.53 498.524 220.659 C 505.651 234.789 494.428 235.985 487.88 234.503 C 468.314 230.073 460.319 215.14 440.753 210.71 C 440.933 205.287 438.176 202.057 438.356 196.635 C 438.45 193.808 437.605 189.277 442.604 193.688 C 447.604 198.099 451.861 193.867 452.002 189.626 C 452.143 185.385 448.175 180.88 442.895 184.95 C 437.614 189.02 438.757 184.555 438.851 181.728 C 439.031 176.305 441.996 173.265 442.176 167.843 C 462.297 162.377 470.035 146.688 490.156 141.222 C 497.206 139.307 509.248 139.299 502.155 154.99 C 495.062 170.682 508.743 177.977 519.319 175.104 C 529.894 172.231 538.004 159.016 523.947 149.071 C 509.889 139.125 520.28 133.039 527.33 131.124 C 547.452 125.658 562.063 135.275 582.185 129.809 C 584.764 131.023 584.898 133.911 587.476 135.125 C 590.02 136.323 593.521 139.384 591.884 132.964 C 590.246 126.543 595.919 124.695 599.733 126.491 C 603.548 128.287 605.737 133.837 599.745 136.665 C 593.752 139.493 598.343 140.242 600.886 141.439 C 603.465 142.654 605.776 140.917 608.355 142.132 C 608.488 150.02 613.495 154.324 613.628 162.213 C 613.676 165.023 612.651 169.513 607.469 165.384 C 602.288 161.254 598.273 165.667 598.344 169.883 C 598.415 174.099 602.577 178.373 607.616 174.071 C 612.655 169.769 613.831 174.222 613.878 177.032 C 614.011 184.921 609.153 189.391 609.286 197.28 C 605.483 202.171 606.679 207.38 602.876 212.272 C 600.08 215.868 597.267 222.86 594.922 212.383 C 592.577 201.905 583.026 203.397 578.832 208.791 C 574.638 214.185 575.549 223.81 586.281 223.498 C 597.013 223.187 590.931 227.638 588.135 231.234 C 584.332 236.126 578.989 236.251 575.186 241.143 Z" fill="none" stroke="#111827" stroke-width="1" stroke-linejoin="round" stroke-linecap="round" vector-effect="non-scaling-stroke" />
    <path data-piece="11" d="M 609.286 197.28 C 609.153 189.391 614.011 184.921 613.878 177.032 C 613.831 174.222 612.655 169.769 607.616 174.071 C 602.577 178.373 598.415 174.099 598.344 169.883 C 598.273 165.667 602.288 161.254 607.469 165.384 C 612.651 169.513 613.676 165.023 613.628 162.213 C 613.495 154.324 608.488 150.02 608.355 142.132 C 616.46 137.075 624.092 139.22 632.197 134.164 C 635.249 132.26 639.599 128.421 631.56 125.728 C 623.52 123.035 625.467 115.653 630.045 112.797 C 634.623 109.941 642.109 111.438 640.993 119.843 C 639.877 128.248 645.237 126.029 648.289 124.125 C 656.394 119.069 657.824 111.27 665.929 106.214 C 671.216 105.936 673.438 100.983 678.725 100.705 C 684.03 100.425 692.342 97.57 684.893 107.634 C 677.444 117.698 686.048 124.982 694.005 124.563 C 701.962 124.144 709.754 115.997 701.289 106.77 C 692.825 97.544 701.391 99.511 706.696 99.232 C 711.983 98.954 714.713 103.646 720 103.367 L 720 304.207 C 703.888 288.646 685.049 290.319 668.936 274.757 C 663.542 269.548 657.784 258.336 675.347 256.343 C 692.911 254.35 692.152 238.452 684.061 230.638 C 675.97 222.823 660.055 222.618 658.674 240.24 C 657.294 257.862 645.888 252.498 640.494 247.288 C 624.382 231.727 625.398 212.841 609.286 197.28 Z" fill="none" stroke="#111827" stroke-width="1" stroke-linejoin="round" stroke-linecap="round" vector-effect="non-scaling-stroke" />
    <path data-piece="12" d="M 103.879 282.864 C 91.376 283.735 84.666 291.045 72.162 291.916 C 64.671 292.438 52.992 296.673 63.279 282.271 C 73.565 267.869 61.23 257.781 49.994 258.564 C 38.759 259.347 27.942 271.048 40.126 283.885 C 52.311 296.721 40.157 294.146 32.667 294.668 C 20.163 295.54 12.504 289.231 0 290.102 L 0 210.564 C 25.084 211.436 39.324 195.059 64.408 195.931 C 71.358 196.172 82.157 203.932 71.294 216.205 C 60.43 228.478 70.819 238.96 81.244 239.322 C 91.668 239.685 102.76 229.949 92.774 216.951 C 82.789 203.954 94.102 196.963 101.051 197.204 C 126.135 198.076 139.204 215.403 164.288 216.275 L 170.879 261.04 C 160.663 264.368 157.332 273.034 147.116 276.362 C 144.269 277.289 138.773 275.791 141.357 269.225 C 143.94 262.659 138.193 259.952 133.924 261.343 C 129.654 262.734 126.604 268.306 132.559 272.091 C 138.514 275.875 134.954 280.323 132.108 281.25 C 121.892 284.578 114.096 279.536 103.879 282.864 Z" fill="none" stroke="#111827" stroke-width="1" stroke-linejoin="round" stroke-linecap="round" vector-effect="non-scaling-stroke" />
    <path data-piece="13" d="M 290.909 353.529 C 281.16 363.469 269.553 362.952 259.804 372.893 C 256.261 376.505 251.874 383.476 263.755 384.499 C 275.637 385.522 275.416 396.257 270.102 401.675 C 264.788 407.093 254.059 407.523 252.806 395.664 C 251.552 383.805 244.667 388.326 241.125 391.938 C 231.375 401.878 232.118 413.473 222.368 423.414 L 201.846 424.025 C 197.787 397.103 215.662 379.966 211.603 353.044 C 210.974 348.877 195.654 344.406 189.02 351.799 C 182.386 359.192 175.353 353.666 174.411 347.415 C 173.469 341.165 178.559 333.811 187.078 338.919 C 195.597 344.028 208.918 335.239 208.29 331.072 C 204.231 304.15 182.099 293.044 178.04 266.122 L 208.066 262.929 C 222.232 265.055 231.393 256.898 245.558 259.024 C 249.816 259.663 256.063 264.195 248.514 270.978 C 240.965 277.761 246.616 284.942 253.003 285.901 C 259.39 286.859 266.9 281.653 261.675 272.953 C 256.45 264.253 263.752 261.754 268.01 262.393 C 282.175 264.519 288.538 275.005 302.704 277.131 L 306.017 282.493 C 303.708 293.348 309.751 300.808 307.442 311.663 C 306.805 314.66 302.578 318.744 298.086 313.09 C 293.593 307.437 288.249 311.141 287.294 315.636 C 286.338 320.131 289.711 325.689 296.116 322.353 C 302.52 319.016 304.719 324.467 304.082 327.464 C 301.773 338.319 293.218 342.674 290.909 353.529 Z" fill="none" stroke="#111827" stroke-width="1" stroke-linejoin="round" stroke-linecap="round" vector-effect="non-scaling-stroke" />
    <path data-piece="14" d="M 302.704 277.131 C 288.538 275.005 282.175 264.519 268.01 262.393 C 263.752 261.754 256.45 264.253 261.675 272.953 C 266.9 281.653 259.39 286.859 253.003 285.901 C 246.616 284.942 240.965 277.761 248.514 270.978 C 256.063 264.195 249.816 259.663 245.558 259.024 C 231.393 256.898 222.232 265.055 208.066 262.929 C 217.337 245.72 233.789 242.434 243.06 225.225 C 245.797 220.144 245.699 209.664 232.358 212.309 C 219.016 214.953 215.856 203.121 219.961 195.501 C 224.066 187.88 235.685 184.01 240.817 196.606 C 245.948 209.203 254.753 203.519 257.49 198.438 C 266.761 181.229 260.455 165.683 269.726 148.474 C 275.301 153.706 274.643 160.408 280.217 165.64 C 281.511 166.854 285.565 166.658 285.833 162.486 C 286.1 158.313 289.865 158.307 291.805 160.129 C 293.745 161.95 293.978 165.707 289.831 166.238 C 285.683 166.769 285.744 170.828 287.037 172.042 C 292.612 177.274 299.259 176.194 304.833 181.425 L 305.82 188.444 C 305.353 201.728 296.35 208.698 295.883 221.982 C 295.743 225.964 298.838 232.416 306.288 226.697 C 313.738 220.978 319.315 227.336 319.105 233.309 C 318.895 239.282 312.886 245.233 305.856 239.006 C 298.825 232.778 295.285 238.997 295.145 242.979 C 294.679 256.263 303.17 263.847 302.704 277.131 Z" fill="none" stroke="#111827" stroke-width="1" stroke-linejoin="round" stroke-linecap="round" vector-effect="non-scaling-stroke" />
    <path data-piece="15" d="M 428.139 284.606 C 410.113 284.294 400.392 272.439 382.366 272.127 C 376.644 272.028 367.473 275.751 375.876 286.304 C 384.28 296.856 375.292 305.027 366.709 304.878 C 358.125 304.73 349.426 296.253 358.189 285.998 C 366.953 275.742 357.916 271.704 352.194 271.605 C 334.168 271.293 324.042 282.805 306.017 282.493 L 302.704 277.131 C 303.17 263.847 294.679 256.263 295.145 242.979 C 295.285 238.997 298.825 232.778 305.856 239.006 C 312.886 245.233 318.895 239.282 319.105 233.309 C 319.315 227.336 313.738 220.978 306.288 226.697 C 298.838 232.416 295.743 225.964 295.883 221.982 C 296.35 208.698 305.353 201.728 305.82 188.444 C 325.961 197.424 343.072 188.057 363.214 197.037 C 367.687 199.031 371.203 210.281 360.867 215.424 C 350.53 220.566 354.543 230.155 361.253 233.147 C 367.963 236.139 377.778 232.714 374.694 221.588 C 371.61 210.463 382.328 205.559 386.802 207.553 C 406.944 216.533 411.413 235.521 431.554 244.501 C 431.146 249.299 433.57 252.272 433.162 257.07 C 432.913 259.994 433.846 264.76 428.902 259.921 C 423.959 255.081 419.32 259.238 418.946 263.625 C 418.573 268.012 422.442 272.894 428.132 268.96 C 433.823 265.026 432.098 269.565 431.849 272.49 C 431.44 277.288 428.547 279.808 428.139 284.606 Z" fill="none" stroke="#111827" stroke-width="1" stroke-linejoin="round" stroke-linecap="round" vector-effect="non-scaling-stroke" />
    <path data-piece="16" d="M 531.106 330.953 C 523.094 331.272 518.352 326.891 510.34 327.21 C 505.321 327.41 497.247 325.447 505.138 334.272 C 513.029 343.096 505.563 350.705 498.036 351.004 C 490.508 351.304 482.462 344.313 489.626 334.889 C 496.79 325.465 488.897 328.064 483.879 328.264 C 475.867 328.583 471.488 333.327 463.476 333.646 C 459.028 327.472 453.22 326.226 448.771 320.053 C 446.421 316.791 441.467 312.479 450.922 313.098 C 460.377 313.717 461.488 305.258 457.963 300.366 C 454.438 295.475 446.063 293.853 443.658 303.017 C 441.253 312.182 438.73 306.118 436.38 302.857 C 431.931 296.683 432.588 290.78 428.139 284.606 C 428.547 279.808 431.44 277.288 431.849 272.49 C 432.098 269.565 433.823 265.026 428.132 268.96 C 422.442 272.894 418.573 268.012 418.946 263.625 C 419.32 259.238 423.959 255.081 428.902 259.921 C 433.846 264.76 432.913 259.994 433.162 257.07 C 433.57 252.272 431.146 249.299 431.554 244.501 C 432.566 240.787 435.685 239.487 436.696 235.773 C 437.467 232.941 439.981 228.786 433.675 231.632 C 427.37 234.478 424.442 228.98 425.598 224.732 C 426.754 220.484 432.065 217.229 436.058 222.878 C 440.051 228.528 439.99 223.672 440.761 220.84 C 441.772 217.126 439.742 214.424 440.753 210.71 C 460.319 215.14 468.314 230.073 487.88 234.503 C 494.428 235.985 505.651 234.789 498.524 220.659 C 491.396 206.53 503.673 199.296 513.495 201.52 C 523.317 203.743 531.281 215.559 518.763 225.241 C 506.246 234.923 515.859 240.836 522.407 242.319 C 541.973 246.748 555.62 236.714 575.186 241.143 C 569.702 252.316 572.25 261.622 566.766 272.795 C 563.775 278.89 561.593 289.85 554.999 275.269 C 548.405 260.689 534.917 265.757 530.43 274.898 C 525.943 284.04 530.185 297.81 545.753 294.107 C 561.321 290.404 553.985 298.835 550.994 304.93 C 545.51 316.103 536.59 319.78 531.106 330.953 Z" fill="none" stroke="#111827" stroke-width="1" stroke-linejoin="round" stroke-linecap="round" vector-effect="non-scaling-stroke" />
    <path data-piece="17" d="M 599.545 393.927 C 590.9 385.972 581.711 385.922 573.066 377.967 C 568.541 373.804 559.854 368.799 574.21 366.818 C 588.566 364.836 587.629 351.821 580.843 345.576 C 574.056 339.332 561.008 339.479 560.225 353.95 C 559.443 368.421 553.734 360.179 549.209 356.016 C 540.564 348.061 539.751 338.908 531.106 330.953 C 536.59 319.78 545.51 316.103 550.994 304.93 C 553.985 298.835 561.321 290.404 545.753 294.107 C 530.185 297.81 525.943 284.04 530.43 274.898 C 534.917 265.757 548.405 260.689 554.999 275.269 C 561.593 289.85 563.775 278.89 566.766 272.795 C 572.25 261.622 569.702 252.316 575.186 241.143 C 578.989 236.251 584.332 236.126 588.135 231.234 C 590.931 227.638 597.013 223.187 586.281 223.498 C 575.549 223.81 574.638 214.185 578.832 208.791 C 583.026 203.397 592.577 201.905 594.922 212.383 C 597.267 222.86 600.08 215.868 602.876 212.272 C 606.679 207.38 605.483 202.171 609.286 197.28 C 625.398 212.841 624.382 231.727 640.494 247.288 C 645.888 252.498 657.294 257.862 658.674 240.24 C 660.055 222.618 675.97 222.823 684.061 230.638 C 692.152 238.452 692.911 254.35 675.347 256.343 C 657.784 258.336 663.542 269.548 668.936 274.757 C 685.049 290.319 703.888 288.646 720 304.207 L 720 311.533 C 703.686 322.692 687.939 319.488 671.625 330.647 C 664.659 335.412 653.592 343.015 672.704 348.533 C 691.817 354.051 687.982 371.547 677.533 378.694 C 667.084 385.842 649.387 383.073 651.173 363.261 C 652.958 343.448 641.861 351.006 634.895 355.771 C 618.581 366.93 615.859 382.768 599.545 393.927 Z" fill="none" stroke="#111827" stroke-width="1" stroke-linejoin="round" stroke-linecap="round" vector-effect="non-scaling-stroke" />
    <path data-piece="18" d="M 141.252 458.025 C 119.745 439.887 95.875 444.412 74.368 426.275 C 68.34 421.191 63.967 406.915 82.253 403.58 C 100.54 400.246 98.618 383.62 89.575 375.994 C 80.533 368.368 63.821 369.279 63.62 387.866 C 63.419 406.453 48.61 404.552 42.582 399.468 C 21.075 381.331 21.507 357.04 0 338.902 L 0 290.102 C 12.504 289.231 20.163 295.54 32.667 294.668 C 40.157 294.146 52.311 296.721 40.126 283.885 C 27.942 271.048 38.759 259.347 49.994 258.564 C 61.23 257.781 73.565 267.869 63.279 282.271 C 52.992 296.673 64.671 292.438 72.162 291.916 C 84.666 291.045 91.376 283.735 103.879 282.864 C 117.22 308.804 104.764 332.356 118.105 358.296 C 120.032 362.044 137.416 360.643 141.339 351.517 C 145.262 342.391 153.692 345.38 156.583 351.001 C 159.474 356.623 157.001 365.218 147.297 363.101 C 137.592 360.983 126.34 374.309 128.267 378.057 C 141.607 403.997 168.009 407.566 181.35 433.506 C 175.839 436.875 170.729 435.495 165.219 438.865 C 162.972 440.238 159.529 442.639 165.397 444.663 C 171.265 446.688 169.791 452.079 166.421 454.14 C 163.051 456.2 157.581 455.055 158.453 448.91 C 159.325 442.764 155.619 444.735 153.372 446.108 C 147.862 449.478 146.762 454.655 141.252 458.025 Z" fill="none" stroke="#111827" stroke-width="1" stroke-linejoin="round" stroke-linecap="round" vector-effect="non-scaling-stroke" />
    <path data-piece="19" d="M 181.35 433.506 C 168.009 407.566 141.607 403.997 128.267 378.057 C 126.34 374.309 137.592 360.983 147.297 363.101 C 157.001 365.218 159.474 356.623 156.583 351.001 C 153.692 345.38 145.262 342.391 141.339 351.517 C 137.416 360.643 120.032 362.044 118.105 358.296 C 104.764 332.356 117.22 308.804 103.879 282.864 C 114.096 279.536 121.892 284.578 132.108 281.25 C 134.954 280.323 138.514 275.875 132.559 272.091 C 126.604 268.306 129.654 262.734 133.924 261.343 C 138.193 259.952 143.94 262.659 141.357 269.225 C 138.773 275.791 144.269 277.289 147.116 276.362 C 157.332 273.034 160.663 264.368 170.879 261.04 L 178.04 266.122 C 182.099 293.044 204.231 304.15 208.29 331.072 C 208.918 335.239 195.597 344.028 187.078 338.919 C 178.559 333.811 173.469 341.165 174.411 347.415 C 175.353 353.666 182.386 359.192 189.02 351.799 C 195.654 344.406 210.974 348.877 211.603 353.044 C 215.662 379.966 197.787 397.103 201.846 424.025 L 181.35 433.506 Z" fill="none" stroke="#111827" stroke-width="1" stroke-linejoin="round" stroke-linecap="round" vector-effect="non-scaling-stroke" />
    <path data-piece="20" d="M 416.811 450.039 C 395.35 454.2 387.033 472.03 365.572 476.191 C 361.705 476.941 353.545 467.779 357.982 459.623 C 362.419 451.466 355.352 447 349.551 448.125 C 343.75 449.25 338.864 456.034 346.029 461.94 C 353.193 467.847 349.049 479.395 345.181 480.145 C 323.721 484.307 309.342 470.878 287.882 475.04 C 278.565 467.698 268.814 469.393 259.497 462.051 C 256.109 459.381 251.639 453.968 261.574 451.813 C 271.51 449.658 270.157 440.604 265.076 436.599 C 259.994 432.595 250.875 433.397 251.103 443.561 C 251.331 453.725 245.022 450.644 241.634 447.974 C 232.317 440.633 231.685 430.755 222.368 423.414 C 232.118 413.473 231.375 401.878 241.125 391.938 C 244.667 388.326 251.552 383.805 252.806 395.664 C 254.059 407.523 264.788 407.093 270.102 401.675 C 275.416 396.257 275.637 385.522 263.755 384.499 C 251.874 383.476 256.261 376.505 259.804 372.893 C 269.553 362.952 281.16 363.469 290.909 353.529 C 309.539 360.61 324.313 353.021 342.943 360.102 C 349.769 362.697 359.782 369.055 344.824 377.574 C 329.867 386.094 336.643 400.033 346.882 403.926 C 357.122 407.818 371.447 401.899 365.925 385.595 C 360.403 369.29 372.111 371.189 378.937 373.784 C 397.567 380.865 403.569 396.353 422.199 403.434 L 419.773 438.548 L 416.811 450.039 Z" fill="none" stroke="#111827" stroke-width="1" stroke-linejoin="round" stroke-linecap="round" vector-effect="non-scaling-stroke" />
    <path data-piece="21" d="M 422.199 403.434 C 403.569 396.353 397.567 380.865 378.937 373.784 C 372.111 371.189 360.403 369.29 365.925 385.595 C 371.447 401.899 357.122 407.818 346.882 403.926 C 336.643 400.033 329.867 386.094 344.824 377.574 C 359.782 369.055 349.769 362.697 342.943 360.102 C 324.313 353.021 309.539 360.61 290.909 353.529 C 293.218 342.674 301.773 338.319 304.082 327.464 C 304.719 324.467 302.52 319.016 296.116 322.353 C 289.711 325.689 286.338 320.131 287.294 315.636 C 288.249 311.141 293.593 307.437 298.086 313.09 C 302.578 318.744 306.805 314.66 307.442 311.663 C 309.751 300.808 303.708 293.348 306.017 282.493 C 324.042 282.805 334.168 271.293 352.194 271.605 C 357.916 271.704 366.953 275.742 358.189 285.998 C 349.426 296.253 358.125 304.73 366.709 304.878 C 375.292 305.027 384.28 296.856 375.876 286.304 C 367.473 275.751 376.644 272.028 382.366 272.127 C 400.392 272.439 410.113 284.294 428.139 284.606 C 432.588 290.78 431.931 296.683 436.38 302.857 C 438.73 306.118 441.253 312.182 443.658 303.017 C 446.063 293.853 454.438 295.475 457.963 300.366 C 461.488 305.258 460.377 313.717 450.922 313.098 C 441.467 312.479 446.421 316.791 448.771 320.053 C 453.22 326.226 459.028 327.472 463.476 333.646 C 458.095 342.743 460.042 350.93 454.661 360.027 C 452.084 364.385 448.896 371.856 444.84 360.634 C 440.783 349.413 430.463 352.398 426.597 358.934 C 422.731 365.47 425.086 375.952 436.874 374.102 C 448.662 372.252 443.65 378.644 441.073 383.002 C 435.692 392.099 427.58 394.336 422.199 403.434 Z" fill="none" stroke="#111827" stroke-width="1" stroke-linejoin="round" stroke-linecap="round" vector-effect="non-scaling-stroke" />
    <path data-piece="22" d="M 419.773 438.548 L 422.199 403.434 C 427.58 394.336 435.692 392.099 441.073 383.002 C 443.65 378.644 448.662 372.252 436.874 374.102 C 425.086 375.952 422.731 365.47 426.597 358.934 C 430.463 352.398 440.783 349.413 444.84 360.634 C 448.896 371.856 452.084 364.385 454.661 360.027 C 460.042 350.93 458.095 342.743 463.476 333.646 C 471.488 333.327 475.867 328.583 483.879 328.264 C 488.897 328.064 496.79 325.465 489.626 334.889 C 482.462 344.313 490.508 351.304 498.036 351.004 C 505.563 350.705 513.029 343.096 505.138 334.272 C 497.247 325.447 505.321 327.41 510.34 327.21 C 518.352 326.891 523.094 331.272 531.106 330.953 C 539.751 338.908 540.564 348.061 549.209 356.016 C 553.734 360.179 559.443 368.421 560.225 353.95 C 561.008 339.479 574.056 339.332 580.843 345.576 C 587.629 351.821 588.566 364.836 574.21 366.818 C 559.854 368.799 568.541 373.804 573.066 377.967 C 581.711 385.922 590.9 385.972 599.545 393.927 C 600.129 400.279 596.951 404.241 597.534 410.593 C 597.814 413.634 597.623 418.531 602.734 413.461 C 607.844 408.391 612.7 412.685 613.119 417.247 C 613.538 421.809 609.546 426.915 603.597 422.861 C 597.649 418.807 598.728 423.587 599.007 426.629 C 599.591 432.981 603.437 436.297 604.021 442.649 C 577.23 442.052 562.028 458.798 535.237 458.202 C 526.24 458.002 512.033 452.876 525.893 436.818 C 539.753 420.76 526.139 407.363 512.643 407.063 C 499.148 406.763 484.952 419.54 498.083 436.199 C 511.215 452.858 496.794 457.346 487.797 457.146 C 461.006 456.55 446.564 439.144 419.773 438.548 Z" fill="none" stroke="#111827" stroke-width="1" stroke-linejoin="round" stroke-linecap="round" vector-effect="non-scaling-stroke" />
    <path data-piece="23" d="M 611.26 470.162 C 610.565 467.52 607.709 467.401 607.014 464.76 C 606.25 461.854 603.713 457.579 610.142 460.548 C 616.571 463.516 619.616 457.914 618.469 453.556 C 617.323 449.198 611.915 445.82 607.78 451.567 C 603.644 457.315 603.748 452.346 602.984 449.44 C 602.289 446.799 604.716 445.29 604.021 442.649 C 603.437 436.297 599.591 432.981 599.007 426.629 C 598.728 423.587 597.649 418.807 603.597 422.861 C 609.546 426.915 613.538 421.809 613.119 417.247 C 612.7 412.685 607.844 408.391 602.734 413.461 C 597.623 418.531 597.814 413.634 597.534 410.593 C 596.951 404.241 600.129 400.279 599.545 393.927 C 615.859 382.768 618.581 366.93 634.895 355.771 C 641.861 351.006 652.958 343.448 651.173 363.261 C 649.387 383.073 667.084 385.842 677.533 378.694 C 687.982 371.547 691.817 354.051 672.704 348.533 C 653.592 343.015 664.659 335.412 671.625 330.647 C 687.939 319.488 703.686 322.692 720 311.533 L 720 473.857 C 704.304 473.324 695.937 463.108 680.242 462.575 C 674.827 462.391 666.127 464.634 673.914 474.755 C 681.702 484.876 673.066 492.467 664.944 492.191 C 656.822 491.915 648.722 483.755 657.178 474.186 C 665.635 464.617 657.107 461.789 651.692 461.605 C 635.996 461.071 626.955 470.695 611.26 470.162 Z" fill="none" stroke="#111827" stroke-width="1" stroke-linejoin="round" stroke-linecap="round" vector-effect="non-scaling-stroke" />
    <path data-piece="24" d="M 0 338.902 C 21.507 357.04 21.075 381.331 42.582 399.468 C 48.61 404.552 63.419 406.453 63.62 387.866 C 63.821 369.279 80.533 368.368 89.575 375.994 C 98.618 383.62 100.54 400.246 82.253 403.58 C 63.967 406.915 68.34 421.191 74.368 426.275 C 95.875 444.412 119.745 439.887 141.252 458.025 C 137.454 468.324 129.88 472.309 126.082 482.607 C 124.064 488.078 118.767 496.012 131.741 491.474 C 144.715 486.936 149.554 498.326 146.528 506.533 C 143.501 514.739 132.425 520.26 125.505 508.385 C 118.584 496.51 117.461 505.983 115.444 511.454 C 111.646 521.753 114.818 529.701 111.02 540 L 0 540 L 0 338.902 Z" fill="none" stroke="#111827" stroke-width="1" stroke-linejoin="round" stroke-linecap="round" vector-effect="non-scaling-stroke" />
    <path data-piece="25" d="M 141.252 458.025 C 146.762 454.655 147.862 449.478 153.372 446.108 C 155.619 444.735 159.325 442.764 158.453 448.91 C 157.581 455.055 163.051 456.2 166.421 454.14 C 169.791 452.079 171.265 446.688 165.397 444.663 C 159.529 442.639 162.972 440.238 165.219 438.865 C 170.729 435.495 175.839 436.875 181.35 433.506 L 201.846 424.025 L 222.368 423.414 C 231.685 430.755 232.317 440.633 241.634 447.974 C 245.022 450.644 251.331 453.725 251.103 443.561 C 250.875 433.397 259.994 432.595 265.076 436.599 C 270.157 440.604 271.51 449.658 261.574 451.813 C 251.639 453.968 256.109 459.381 259.497 462.051 C 268.814 469.393 278.565 467.698 287.882 475.04 C 288.951 481.377 283.641 485.316 284.711 491.653 C 285.79 498.044 284.601 508.7 294.602 497.154 C 304.603 485.607 315.565 493.914 317.183 503.499 C 318.801 513.085 311.173 524.53 297.936 516.906 C 284.699 509.281 289.32 518.957 290.398 525.348 C 291.468 531.685 297.777 533.663 298.847 540 L 111.02 540 C 114.818 529.701 111.646 521.753 115.444 511.454 C 117.461 505.983 118.584 496.51 125.505 508.385 C 132.425 520.26 143.501 514.739 146.528 506.533 C 149.554 498.326 144.715 486.936 131.741 491.474 C 118.767 496.012 124.064 488.078 126.082 482.607 C 129.88 472.309 137.454 468.324 141.252 458.025 Z" fill="none" stroke="#111827" stroke-width="1" stroke-linejoin="round" stroke-linecap="round" vector-effect="non-scaling-stroke" />
    <path data-piece="26" d="M 287.882 475.04 C 309.342 470.878 323.721 484.307 345.181 480.145 C 349.049 479.395 353.193 467.847 346.029 461.94 C 338.864 456.034 343.75 449.25 349.551 448.125 C 355.352 447 362.419 451.466 357.982 459.623 C 353.545 467.779 361.705 476.941 365.572 476.191 C 387.033 472.03 395.35 454.2 416.811 450.039 L 421.868 463.075 C 407.589 475.559 391.081 472.047 376.802 484.531 C 373.836 487.124 374.475 497.376 383.638 498.879 C 392.8 500.381 391.989 508.702 387.54 512.591 C 383.092 516.481 374.737 516.174 374.471 506.893 C 374.205 497.612 364.131 495.61 361.165 498.203 C 346.886 510.687 348.163 527.516 333.884 540 L 298.847 540 C 297.777 533.663 291.468 531.685 290.398 525.348 C 289.32 518.957 284.699 509.281 297.936 516.906 C 311.173 524.53 318.801 513.085 317.183 503.499 C 315.565 493.914 304.603 485.607 294.602 497.154 C 284.601 508.7 285.79 498.044 284.711 491.653 C 283.641 485.316 288.951 481.377 287.882 475.04 Z" fill="none" stroke="#111827" stroke-width="1" stroke-linejoin="round" stroke-linecap="round" vector-effect="non-scaling-stroke" />
    <path data-piece="27" d="M 421.868 463.075 C 426.863 474.159 422.645 483.46 427.64 494.543 C 429.375 498.392 433.877 503.728 438.272 494.802 C 442.667 485.877 450.944 489.301 453.546 495.073 C 456.148 500.845 453.231 509.315 443.633 506.696 C 434.035 504.078 435.051 510.985 436.785 514.833 C 441.781 525.917 451.543 528.916 456.539 540 L 333.884 540 C 348.163 527.516 346.886 510.687 361.165 498.203 C 364.131 495.61 374.205 497.612 374.471 506.893 C 374.737 516.174 383.092 516.481 387.54 512.591 C 391.989 508.702 392.8 500.381 383.638 498.879 C 374.475 497.376 373.836 487.124 376.802 484.531 C 391.081 472.047 407.589 475.559 421.868 463.075 Z" fill="none" stroke="#111827" stroke-width="1" stroke-linejoin="round" stroke-linecap="round" vector-effect="non-scaling-stroke" />
    <path data-piece="28" d="M 421.868 463.075 L 416.811 450.039 L 419.773 438.548 C 446.564 439.144 461.006 456.55 487.797 457.146 C 496.794 457.346 511.215 452.858 498.083 436.199 C 484.952 419.54 499.148 406.763 512.643 407.063 C 526.139 407.363 539.753 420.76 525.893 436.818 C 512.033 452.876 526.24 458.002 535.237 458.202 C 562.028 458.798 577.23 442.052 604.021 442.649 C 604.716 445.29 602.289 446.799 602.984 449.44 C 603.748 452.346 603.644 457.315 607.78 451.567 C 611.915 445.82 617.323 449.198 618.469 453.556 C 619.616 457.914 616.571 463.516 610.142 460.548 C 603.713 457.579 606.25 461.854 607.014 464.76 C 607.709 467.401 610.565 467.52 611.26 470.162 C 606.998 479.718 610.248 487.631 605.987 497.187 C 604.225 501.138 601.155 507.303 596.615 498.175 C 592.075 489.046 583.607 492.589 580.964 498.515 C 578.322 504.441 581.346 513.108 591.17 510.385 C 600.995 507.662 598.46 514.066 596.699 518.017 C 592.437 527.573 584.379 530.444 580.117 540 L 456.539 540 C 451.543 528.916 441.781 525.917 436.785 514.833 C 435.051 510.985 434.035 504.078 443.633 506.696 C 453.231 509.315 456.148 500.845 453.546 495.073 C 450.944 489.301 442.667 485.877 438.272 494.802 C 433.877 503.728 429.375 498.392 427.64 494.543 C 422.645 483.46 426.863 474.159 421.868 463.075 Z" fill="none" stroke="#111827" stroke-width="1" stroke-linejoin="round" stroke-linecap="round" vector-effect="non-scaling-stroke" />
    <path data-piece="29" d="M 611.26 470.162 C 626.955 470.695 635.996 461.071 651.692 461.605 C 657.107 461.789 665.635 464.617 657.178 474.186 C 648.722 483.755 656.822 491.915 664.944 492.191 C 673.066 492.467 681.702 484.876 673.914 474.755 C 666.127 464.634 674.827 462.391 680.242 462.575 C 695.937 463.108 704.304 473.324 720 473.857 L 720 540 L 580.117 540 C 584.379 530.444 592.437 527.573 596.699 518.017 C 598.46 514.066 600.995 507.662 591.17 510.385 C 581.346 513.108 578.322 504.441 580.964 498.515 C 583.607 492.589 592.075 489.046 596.615 498.175 C 601.155 507.303 604.225 501.138 605.987 497.187 C 610.248 487.631 606.998 479.718 611.26 470.162 Z" fill="none" stroke="#111827" stroke-width="1" stroke-linejoin="round" stroke-linecap="round" vector-effect="non-scaling-stroke" />
  </g>
</svg>
